<svg id="Layer_1" height="512" viewBox="0 0 128 128" width="512" xmlns="http://www.w3.org/2000/svg" data-name="Layer 1"><path d="m111.807 103.678 7.958-4.381a1.751 1.751 0 0 0 -.391-3.224l-4.751-1.273a59.233 59.233 0 1 0 -19.823 19.823l1.273 4.75a1.75 1.75 0 0 0 3.223.391l4.382-7.956 10.93 10.929a1.749 1.749 0 0 0 2.475 0l5.654-5.654a1.749 1.749 0 0 0 0-2.475zm-47.807 16.072a55.75 55.75 0 1 1 47.085-25.9l-20.618-5.527a1.75 1.75 0 0 0 -2.144 2.144l5.528 20.618a55.517 55.517 0 0 1 -29.851 8.665zm51.846-.725-11.34-11.339a1.745 1.745 0 0 0 -1.237-.513 1.864 1.864 0 0 0 -.247.017 1.751 1.751 0 0 0 -1.286.889l-3.408 6.188-5.839-21.778 21.779 5.839-6.189 3.407a1.75 1.75 0 0 0 -.393 2.771l11.339 11.34z"/><path d="m73.853 63.292a45.321 45.321 0 0 0 -7.053-2.183v-11.918a24.575 24.575 0 0 1 9.559 3.185l2.419-5.959a21.321 21.321 0 0 0 -5.517-2.477 27.65 27.65 0 0 0 -6.461-1.121v-6.549h-4.835v6.667q-6.609.651-10.089 4.012a10.9 10.9 0 0 0 -3.476 8.142 9.491 9.491 0 0 0 1.887 6.165 12.1 12.1 0 0 0 4.691 3.54 43.378 43.378 0 0 0 6.992 2.213v11.8a23.576 23.576 0 0 1 -6.491-1.5 19.509 19.509 0 0 1 -5.309-2.979l-2.66 5.954a17.99 17.99 0 0 0 6.194 3.3 33.053 33.053 0 0 0 8.261 1.593v6.553h4.835v-6.608q6.667-.708 10.178-4.041a10.768 10.768 0 0 0 3.51-8.113 9.4 9.4 0 0 0 -1.915-6.168 12.13 12.13 0 0 0 -4.72-3.508zm-11.888-3.422a13.283 13.283 0 0 1 -4.425-2.006 3.747 3.747 0 0 1 -1.534-3.127 4.635 4.635 0 0 1 1.475-3.481 8.169 8.169 0 0 1 4.484-1.888zm9.469 16.992a8.8 8.8 0 0 1 -4.634 1.829v-10.443a13.658 13.658 0 0 1 4.543 2.036 3.839 3.839 0 0 1 1.596 3.216 4.347 4.347 0 0 1 -1.505 3.362z"/><path d="m64 25.4a1.75 1.75 0 0 0 1.75-1.75v-8.525a1.75 1.75 0 0 0 -3.5 0v8.523a1.75 1.75 0 0 0 1.75 1.752z"/><path d="m92.533 37.217a1.745 1.745 0 0 0 1.238-.513l6.029-6.026a1.75 1.75 0 1 0 -2.477-2.478l-6.023 6.029a1.751 1.751 0 0 0 1.237 2.988z"/><path d="m104.352 65.75h8.523a1.75 1.75 0 0 0 0-3.5h-8.523a1.75 1.75 0 0 0 0 3.5z"/><path d="m64 102.6a1.75 1.75 0 0 0 -1.75 1.75v8.523a1.75 1.75 0 0 0 3.5 0v-8.523a1.75 1.75 0 0 0 -1.75-1.75z"/><path d="m34.229 91.3-6.029 6.022a1.75 1.75 0 1 0 2.477 2.478l6.023-6.029a1.75 1.75 0 0 0 -2.471-2.471z"/><path d="m23.648 62.25h-8.523a1.75 1.75 0 0 0 0 3.5h8.523a1.75 1.75 0 0 0 0-3.5z"/><path d="m30.677 28.2a1.75 1.75 0 1 0 -2.477 2.478l6.029 6.022a1.75 1.75 0 0 0 2.471-2.471z"/></svg>