<?xml version="1.0" encoding="iso-8859-1"?>
<!-- Generator: Adobe Illustrator 19.0.0, SVG Export Plug-In . SVG Version: 6.00 Build 0)  -->
<svg version="1.1" id="Capa_1" xmlns="http://www.w3.org/2000/svg" xmlns:xlink="http://www.w3.org/1999/xlink" x="0px" y="0px"
	 viewBox="0 0 469.333 469.333" style="enable-background:new 0 0 469.333 469.333;" xml:space="preserve">
<g>
	<g>
		<g>
			<path d="M451.125,222.708L250.292,21.875C236.187,7.771,217.437,0,197.49,0H42.667C19.135,0,0,19.135,0,42.667V197.49
				c0,19.948,7.771,38.698,21.875,52.802l200.833,200.833c11.573,11.573,27.594,18.208,43.958,18.208s32.385-6.635,43.958-18.208
				l140.5-140.5c11.573-11.573,18.208-27.594,18.208-43.958S462.698,234.281,451.125,222.708z M436.042,295.542l-140.5,140.5
				c-15.208,15.208-42.542,15.208-57.75,0L36.958,235.208c-10.073-10.073-15.625-23.469-15.625-37.719V42.667
				c0-11.76,9.573-21.333,21.333-21.333H197.49c14.25,0,27.646,5.552,37.719,15.625l200.833,200.833
				c7.604,7.604,11.958,18.125,11.958,28.875C448,277.417,443.646,287.937,436.042,295.542z"/>
			<path d="M85.333,42.667c-23.531,0-42.667,19.135-42.667,42.667S61.802,128,85.333,128S128,108.865,128,85.333
				S108.865,42.667,85.333,42.667z M85.333,106.667C73.573,106.667,64,97.094,64,85.333C64,73.573,73.573,64,85.333,64
				c11.76,0,21.333,9.573,21.333,21.333C106.667,97.094,97.094,106.667,85.333,106.667z"/>
			<path d="M184.187,214.365c12.479-12.479,12.479-32.781,0-45.26c-4.156-4.156-4.156-10.927,0-15.073l7.563-7.552
				c3.99-4.031,11.021-4.031,15.073,0c2.01,2.021,3.125,4.698,3.125,7.542c0,2.854-1.104,5.521-3.125,7.531
				c-4.167,4.167-4.167,10.917-0.01,15.094c4.167,4.167,10.927,4.156,15.094,0.01c6.042-6.042,9.375-14.083,9.375-22.635
				c0-8.542-3.333-16.583-9.375-22.625c-12.083-12.094-33.188-12.063-45.25-0.01l-7.563,7.552
				c-12.458,12.49-12.458,32.781,0.01,45.25c4.156,4.167,4.156,10.927,0,15.094l-7.552,7.542c-4.01,4.042-11.021,4.021-15.073,0
				c-2.01-2.021-3.125-4.698-3.125-7.542c0-2.854,1.104-5.531,3.125-7.531c4.167-4.167,4.167-10.917,0.01-15.094
				c-4.167-4.167-10.927-4.156-15.094-0.01c-6.042,6.042-9.375,14.083-9.375,22.635c0,8.542,3.333,16.583,9.375,22.625
				c6.042,6.042,14.083,9.375,22.625,9.375c8.552,0,16.594-3.333,22.625-9.375L184.187,214.365z"/>
			<path d="M252.073,252.073c4.167-4.167,4.167-10.917,0-15.083l-15.083-15.083l22.625-22.625l22.635,22.625
				c4.167,4.167,10.917,4.167,15.083,0c4.167-4.167,4.167-10.917,0-15.083l-30.177-30.167c-4.167-4.167-10.917-4.167-15.083,0
				l-75.417,75.417c-4.167,4.167-4.167,10.917,0,15.083l30.167,30.177c2.083,2.083,4.813,3.125,7.542,3.125
				c2.729,0,5.458-1.042,7.542-3.125c4.167-4.167,4.167-10.917,0-15.083l-22.625-22.635l22.625-22.625l15.083,15.083
				c2.083,2.083,4.813,3.125,7.542,3.125C247.26,255.198,249.99,254.156,252.073,252.073z"/>
			<path d="M297.333,252.062c0,0.01,0,0.01,0,0.01l-45.271,45.26c-12.448,12.479-12.448,32.771,0.01,45.25
				c6.24,6.24,14.437,9.365,22.625,9.365c8.198,0,16.396-3.125,22.635-9.365l45.25-45.25c12.479-12.479,12.479-32.781,0-45.271
				C330.104,239.604,309.812,239.604,297.333,252.062z M327.5,282.25l-45.25,45.25c-4.156,4.156-10.927,4.177-15.083,0
				c-4.156-4.156-4.156-10.927-0.01-15.083l45.26-45.25c4.146-4.167,10.938-4.156,15.083-0.01
				C331.656,271.323,331.656,278.083,327.5,282.25z"/>
		</g>
	</g>
</g>
<g>
</g>
<g>
</g>
<g>
</g>
<g>
</g>
<g>
</g>
<g>
</g>
<g>
</g>
<g>
</g>
<g>
</g>
<g>
</g>
<g>
</g>
<g>
</g>
<g>
</g>
<g>
</g>
<g>
</g>
</svg>
